<svg xmlns="http://www.w3.org/2000/svg" version="1.1" viewBox="-5.0 -10.0 110.0 135.0">
 <path d="m6.25 16.668c0-5.7539 4.6641-10.418 10.418-10.418h66.664c5.7539 0 10.418 4.6641 10.418 10.418v66.664c0 5.7539-4.6641 10.418-10.418 10.418h-66.664c-5.7539 0-10.418-4.6641-10.418-10.418zm10.418-6.25c-3.4531 0-6.25 2.7969-6.25 6.25v66.664c0 3.4531 2.7969 6.25 6.25 6.25h66.664c3.4531 0 6.25-2.7969 6.25-6.25v-66.664c0-3.4531-2.7969-6.25-6.25-6.25z" fill-rule="evenodd"/>
 <path d="m6.25 16.668c0-5.7539 4.6641-10.418 10.418-10.418h66.664c5.7539 0 10.418 4.6641 10.418 10.418v8.332c0 1.1523-0.93359 2.082-2.082 2.082h-83.336c-1.1484 0-2.082-0.92969-2.082-2.082zm10.418-6.25c-3.4531 0-6.25 2.7969-6.25 6.25v6.25h79.164v-6.25c0-3.4531-2.7969-6.25-6.25-6.25z" fill-rule="evenodd"/>
 <path d="m18.75 47.918c0-6.9062 5.5977-12.5 12.5-12.5h4.168c6.9023 0 12.5 5.5938 12.5 12.5v2.082h-4.168v-2.082c0-4.6055-3.7305-8.3359-8.332-8.3359h-4.168c-4.6016 0-8.332 3.7305-8.332 8.3359v20.832c0 4.6016 3.7305 8.332 8.332 8.332h4.168c4.6016 0 8.332-3.7305 8.332-8.332v-2.082h4.168v2.082c0 6.9023-5.5977 12.5-12.5 12.5h-4.168c-6.9023 0-12.5-5.5977-12.5-12.5z" fill-rule="evenodd"/>
 <path d="m58.348 74.742 4.168-33.332 4.1367 0.51562-4.168 33.332z" fill-rule="evenodd"/>
 <path d="m68.766 74.742 4.168-33.332 4.1328 0.51562-4.1641 33.332z" fill-rule="evenodd"/>
 <path d="m83.332 52.082h-27.082v-4.1641h27.082z" fill-rule="evenodd"/>
 <path d="m79.168 68.75h-25v-4.168h25z" fill-rule="evenodd"/>
<text x="0.0" y="117.5" font-size="5.0" font-weight="bold" font-family="Arbeit Regular, Helvetica, Arial-Unicode, Arial, Sans-serif" fill="#000000">Created by Kawalan Icon</text><text x="0.0" y="122.5" font-size="5.0" font-weight="bold" font-family="Arbeit Regular, Helvetica, Arial-Unicode, Arial, Sans-serif" fill="#000000">from Noun Project</text></svg>