<svg xmlns="http://www.w3.org/2000/svg" viewBox="0 0 512 640" x="0px" y="0px"><path d="M160,328V303.779a75.017,75.017,0,0,1-12.46,6.276C131.507,316.468,110.362,320,88,320s-43.507-3.532-59.54-9.945A75.017,75.017,0,0,1,16,303.779V328c0,9.785,28.048,24,72,24S160,337.785,160,328ZM40,336a8,8,0,1,1,8-8A8,8,0,0,1,40,336Z"/><path d="M88,256c43.952,0,72-14.215,72-24V207.779a75.017,75.017,0,0,1-12.46,6.276C131.507,220.468,110.362,224,88,224s-43.507-3.532-59.54-9.945A75.017,75.017,0,0,1,16,207.779V232C16,241.785,44.048,256,88,256ZM40,224a8,8,0,1,1-8,8A8,8,0,0,1,40,224Z"/><path d="M88,304c43.952,0,72-14.215,72-24V255.779a75.017,75.017,0,0,1-12.46,6.276C131.507,268.468,110.362,272,88,272s-43.507-3.532-59.54-9.945A75.017,75.017,0,0,1,16,255.779V280C16,289.785,44.048,304,88,304ZM40,272a8,8,0,1,1-8,8A8,8,0,0,1,40,272Z"/><path d="M268.854,137.774l-22.628-22.628-39.6,39.6a8,8,0,0,1-11.314,0L192,151.431V192h40.569l-3.314-3.314a8,8,0,0,1,0-11.314Z"/><path d="M232.568,319.833H192V360.4l3.313-3.314a8,8,0,0,1,11.315,0l39.6,39.6,22.628-22.628-39.6-39.6a8,8,0,0,1,0-11.314Z"/><ellipse cx="88" cy="184" rx="72" ry="24"/><circle cx="400" cy="112" r="16"/><path d="M384,256v56a8,8,0,0,1-8,8h-4.687L400,348.687,428.687,320H424a8,8,0,0,1-8-8V256Z"/><path d="M469.452,413.788C445.817,394.022,419.759,384,392,384s-53.817,10.022-77.452,29.788A155.779,155.779,0,0,0,289.749,440a155.806,155.806,0,0,0,24.8,26.212C338.183,485.978,364.241,496,392,496s53.817-10.022,77.452-29.788A155.779,155.779,0,0,0,494.251,440,155.779,155.779,0,0,0,469.452,413.788ZM392,480a40,40,0,1,1,40-40A40.045,40.045,0,0,1,392,480Z"/><path d="M468.7,90.392a71.417,71.417,0,0,0-5.449-12.83,8,8,0,0,1,1.365-9.489L476.687,56,456,35.313,443.927,47.388a8,8,0,0,1-9.489,1.365,71.417,71.417,0,0,0-12.83-5.449A8,8,0,0,1,416,35.67V16H384V35.67a8,8,0,0,1-5.608,7.634,71.417,71.417,0,0,0-12.83,5.449,8,8,0,0,1-9.489-1.365L344,35.313,323.313,56l12.075,12.073a8,8,0,0,1,1.365,9.489,71.417,71.417,0,0,0-5.449,12.83A8,8,0,0,1,323.67,96H304v32h19.67a8,8,0,0,1,7.634,5.608,71.417,71.417,0,0,0,5.449,12.83,8,8,0,0,1-1.365,9.489L323.313,168,344,188.687l12.073-12.075a8,8,0,0,1,9.489-1.365,71.417,71.417,0,0,0,12.83,5.449A8,8,0,0,1,384,188.33V208h32V188.33a8,8,0,0,1,5.608-7.634,71.417,71.417,0,0,0,12.83-5.449,8,8,0,0,1,9.489,1.365L456,188.687,476.687,168l-12.075-12.073a8,8,0,0,1-1.365-9.489,71.417,71.417,0,0,0,5.449-12.83A8,8,0,0,1,476.33,128H496V96H476.33A8,8,0,0,1,468.7,90.392ZM400,176a64,64,0,1,1,64-64A64.072,64.072,0,0,1,400,176Z"/><path d="M400,64a48,48,0,1,0,48,48A48.053,48.053,0,0,0,400,64Zm0,80a32,32,0,1,1,32-32A32.036,32.036,0,0,1,400,144Z"/><path d="M392,416a24,24,0,1,0,24,24A24.028,24.028,0,0,0,392,416Zm0,32a8,8,0,1,1,8-8A8,8,0,0,1,392,448Z"/><text x="0" y="527" fill="#000000" font-size="5px" font-weight="bold" font-family="'Helvetica Neue', Helvetica, Arial-Unicode, Arial, Sans-serif">Created by iconixar</text><text x="0" y="532" fill="#000000" font-size="5px" font-weight="bold" font-family="'Helvetica Neue', Helvetica, Arial-Unicode, Arial, Sans-serif">from the Noun Project</text></svg>